HIERARCHY
ROOT Hips
{
	OFFSET -0.001795 -0.223333 0.028219
	CHANNELS 6 Xposition Yposition Zposition Zrotation Yrotation Xrotation 
	JOINT LeftUpLeg
	{
		OFFSET 0.069520 -0.091406 -0.006815
		CHANNELS 3 Zrotation Yrotation Xrotation
		JOINT LeftLeg
		{
			OFFSET 0.034277 -0.375199 -0.004496
			CHANNELS 3 Zrotation Yrotation Xrotation
			JOINT LeftFoot
			{
				OFFSET -0.013596 -0.397961 -0.043693
				CHANNELS 3 Zrotation Yrotation Xrotation
				JOINT LeftToe
				{
					OFFSET 0.026358 -0.055791 0.119288
					CHANNELS 3 Zrotation Yrotation Xrotation
					End Site
					{
						OFFSET 0.000000 0.000000 0.000000
					}
				}
			}
		}
	}
	JOINT RightUpLeg
	{
		OFFSET -0.067670 -0.090522 -0.004320
		CHANNELS 3 Zrotation Yrotation Xrotation
		JOINT RightLeg
		{
			OFFSET -0.038290 -0.382569 -0.008850
			CHANNELS 3 Zrotation Yrotation Xrotation
			JOINT RightFoot
			{
				OFFSET 0.015774 -0.398415 -0.042312
				CHANNELS 3 Zrotation Yrotation Xrotation
				JOINT RightToe
				{
					OFFSET -0.025372 -0.048144 0.123348
					CHANNELS 3 Zrotation Yrotation Xrotation
					End Site
					{
						OFFSET 0.000000 0.000000 0.000000
					}
				}
			}
		}
	}
	JOINT Spine
	{
		OFFSET -0.002533 0.108963 -0.026696
		CHANNELS 3 Zrotation Yrotation Xrotation
		JOINT Spine1
		{
			OFFSET 0.005487 0.135180 0.001092
			CHANNELS 3 Zrotation Yrotation Xrotation
			JOINT Spine2
			{
				OFFSET 0.001457 0.052922 0.025425
				CHANNELS 3 Zrotation Yrotation Xrotation
				JOINT Neck
				{
					OFFSET -0.002778 0.213870 -0.042857
					CHANNELS 3 Zrotation Yrotation Xrotation
					JOINT Head
					{
						OFFSET 0.005152 0.064970 0.051349
						CHANNELS 3 Zrotation Yrotation Xrotation
						End Site
						{
							OFFSET 0.000000 0.000000 0.000000
						}
					}
				}
				JOINT LeftShoulder
				{
					OFFSET 0.078845 0.121749 -0.034090
					CHANNELS 3 Zrotation Yrotation Xrotation
					JOINT LeftArm
					{
						OFFSET 0.090977 0.030469 -0.008868
						CHANNELS 3 Zrotation Yrotation Xrotation
						JOINT LeftForeArm
						{
							OFFSET 0.259612 -0.012772 -0.027456
							CHANNELS 3 Zrotation Yrotation Xrotation
							JOINT LeftHand
							{
								OFFSET 0.249234 0.008986 -0.001171
								CHANNELS 3 Zrotation Yrotation Xrotation
								End Site
								{
									OFFSET 0.000000 0.000000 0.000000
								}
							}
						}
					}
				}
				JOINT RightShoulder
				{
					OFFSET -0.081759 0.118833 -0.038615
					CHANNELS 3 Zrotation Yrotation Xrotation
					JOINT RightArm
					{
						OFFSET -0.096012 0.032551 -0.009143
						CHANNELS 3 Zrotation Yrotation Xrotation
						JOINT RightForeArm
						{
							OFFSET -0.253742 -0.013329 -0.021401
							CHANNELS 3 Zrotation Yrotation Xrotation
							JOINT RightHand
							{
								OFFSET -0.255298 0.007772 -0.005559
								CHANNELS 3 Zrotation Yrotation Xrotation
								End Site
								{
									OFFSET 0.000000 0.000000 0.000000
								}
							}
						}
					}
				}
			}
		}
	}
}
MOTION
Frames: 8
Frame Time: 0.050000
-0.084691 1.050423 0.111066 -0.670867 -6.712874 -1.628691 8.238198 0.028226 -3.309793 -0.792294 1.143293 -25.375562 29.803803 24.854141 113.072194 0.000000 0.000000 0.000000 -0.051347 0.845428 -8.386699 1.246874 -0.420707 -18.778213 -29.663492 -18.926058 125.876349 0.000000 0.000000 0.000000 -7.351925 0.404193 11.479369 6.481576 1.792983 -49.434413 4.469368 0.040626 54.058563 -9.680008 4.179069 -93.341085 0.000000 0.000000 0.000000 19.295999 5.856263 -3.150064 15.747785 17.629351 6.480198 18.980251 26.831125 3.009841 0.000000 0.000000 0.000000 -34.744701 -3.421419 -1.438559 2.285734 -21.879989 0.033861 -14.887297 -25.392839 2.317173 0.000000 0.000000 0.000000 
-0.079065 1.059599 0.118416 -1.028152 -7.426653 -2.010298 7.741238 0.058713 -2.079867 0.098510 1.290417 -25.712748 27.345339 24.986169 110.711492 0.000000 0.000000 0.000000 -0.873654 0.700591 -7.278448 1.592149 -0.365577 -19.690973 -27.605147 -18.502726 125.539389 0.000000 0.000000 0.000000 -6.579132 0.273644 10.188368 6.197473 1.690225 -48.049457 5.408957 0.440202 54.484920 -9.832296 4.166237 -92.094602 0.000000 0.000000 0.000000 23.133738 7.340429 -3.699851 19.295065 21.969294 8.608132 20.486922 23.072589 2.890531 0.000000 0.000000 0.000000 -39.336966 -5.287266 -1.779181 -3.808414 -25.360281 2.314028 -14.861498 -22.510804 2.068983 0.000000 0.000000 0.000000 
-0.074940 1.061975 0.125574 -1.635662 -7.039471 -2.229138 8.123119 0.082112 -1.544191 -0.018786 1.216833 -25.166696 26.063510 24.802746 109.295945 0.000000 0.000000 0.000000 -1.057280 0.614474 -6.445636 0.807529 -0.448824 -20.239904 -22.391991 -18.202212 125.462035 0.000000 0.000000 0.000000 -7.004689 0.303398 10.263289 7.355720 1.769979 -49.196944 5.459816 0.463276 55.972815 -10.533194 4.007631 -93.216862 0.000000 0.000000 0.000000 25.694587 8.981454 -4.225510 25.701221 23.722299 11.501869 17.666531 20.027978 1.962915 0.000000 0.000000 0.000000 -41.002337 -5.202545 -2.284302 -11.598770 -27.557438 5.414802 -13.701917 -21.173118 1.700711 0.000000 0.000000 0.000000 
-0.072685 1.058801 0.131794 -2.086328 -7.773071 -3.083708 8.535596 0.160036 -0.384662 -0.001711 1.203411 -24.482301 27.327976 25.175179 109.180807 0.000000 0.000000 0.000000 -1.243878 0.451941 -4.754868 0.733234 -0.422651 -21.430876 -22.965624 -18.208638 123.871656 0.000000 0.000000 0.000000 -6.762227 0.241767 9.611399 7.758483 1.594501 -47.553207 6.454002 1.149030 56.005805 -10.111305 3.975447 -92.596032 0.000000 0.000000 0.000000 29.255105 10.038124 -4.415851 29.250335 23.743948 12.901154 14.827628 18.833979 1.436323 0.000000 0.000000 0.000000 -43.433418 -5.060314 -2.474992 -17.395224 -29.309935 7.876499 -11.677157 -18.369233 1.205493 0.000000 0.000000 0.000000 
-0.072180 1.053323 0.135785 -2.143215 -8.273084 -3.135803 8.702697 0.196923 0.429233 0.735915 1.325534 -24.887783 27.027187 25.189713 110.366123 0.000000 0.000000 0.000000 -1.103672 0.335669 -3.458671 0.106094 -0.458692 -22.884679 -25.412302 -18.111019 124.509881 0.000000 0.000000 0.000000 -7.122943 0.253938 8.905574 9.015760 1.623515 -47.594848 6.215138 1.751714 57.041395 -9.503762 3.908655 -93.162651 0.000000 0.000000 0.000000 31.487663 9.410403 -4.542682 33.095297 24.060716 14.475603 12.384815 19.669797 1.065610 0.000000 0.000000 0.000000 -45.413160 -4.298596 -2.875396 -21.941683 -29.364958 9.642140 -9.405311 -17.271895 0.797364 0.000000 0.000000 0.000000 
-0.072689 1.048958 0.138192 -2.286595 -9.526675 -3.617348 8.414934 0.255941 1.220954 2.155390 1.484208 -24.534768 27.450683 25.553398 111.354249 0.000000 0.000000 0.000000 -0.861851 0.248198 -2.499234 0.732385 -0.313882 -23.245371 -28.982739 -18.207498 123.309410 0.000000 0.000000 0.000000 -6.739889 0.213619 8.705288 9.334280 1.623945 -46.941156 6.640240 2.924513 57.110661 -7.101566 3.881892 -92.824634 0.000000 0.000000 0.000000 33.543113 9.453778 -4.558686 34.243500 23.181640 14.633903 11.146162 20.421441 0.883406 0.000000 0.000000 0.000000 -46.719073 -4.807758 -3.064755 -23.812244 -28.550139 10.256449 -6.886827 -16.760234 0.403414 0.000000 0.000000 0.000000 
-0.073299 1.046560 0.139433 -1.824593 -9.643502 -3.998360 7.967231 0.280501 1.929239 2.368819 1.558399 -25.022831 30.406854 25.987851 111.275507 0.000000 0.000000 0.000000 -1.448307 0.152454 -1.295270 1.066358 -0.257079 -23.701458 -31.942481 -18.731079 122.351623 0.000000 0.000000 0.000000 -6.885805 0.219248 8.719757 8.961232 1.571222 -46.493342 6.571661 2.708591 56.188330 -6.715403 4.030128 -91.473046 0.000000 0.000000 0.000000 34.804987 8.011536 -4.427890 35.238137 23.566500 15.128101 9.701625 21.229589 0.686958 0.000000 0.000000 0.000000 -48.146932 -5.107648 -2.735745 -23.775803 -26.314853 9.672392 -5.818113 -17.178776 0.223171 0.000000 0.000000 0.000000 
-0.073548 1.047560 0.139859 -1.854473 -9.360825 -4.107191 7.975750 0.292584 2.489378 2.537513 1.610350 -25.515329 29.942199 25.958433 110.143240 0.000000 0.000000 0.000000 -1.576055 0.083545 -0.411208 0.931131 -0.282933 -24.280870 -28.322079 -18.403769 122.448274 0.000000 0.000000 0.000000 -6.727000 0.189224 8.346479 8.350020 1.466338 -45.890229 6.923813 1.845463 55.618496 -6.731667 4.167034 -91.172215 0.000000 0.000000 0.000000 33.870040 6.573506 -4.389164 35.229711 24.396889 15.484811 8.761593 22.061273 0.538079 0.000000 0.000000 0.000000 -47.773159 -5.809399 -2.364687 -23.787366 -25.048554 9.319474 -4.404427 -17.561334 -0.041663 0.000000 0.000000 0.000000 
